<?xml version="1.0" encoding="UTF-8" standalone="no"?>
<svg
   xmlns:dc="http://purl.org/dc/elements/1.1/"
   xmlns:cc="http://creativecommons.org/ns#"
   xmlns:rdf="http://www.w3.org/1999/02/22-rdf-syntax-ns#"
   xmlns:svg="http://www.w3.org/2000/svg"
   xmlns="http://www.w3.org/2000/svg"
   width="210mm"
   height="210mm"
   viewBox="0 0 210 210"
   version="1.1"
   id="svg8">
  <defs
     id="defs2" />
  <metadata
     id="metadata5">
    <rdf:RDF>
      <cc:Work
         rdf:about="">
        <dc:format>image/svg+xml</dc:format>
        <dc:type
           rdf:resource="http://purl.org/dc/dcmitype/StillImage" />
        <dc:title></dc:title>
      </cc:Work>
    </rdf:RDF>
  </metadata>
  <path
     id="rect4495"
     d="M 106.06226,8.0201822 V 200.34281 A 96.175048,96.175048 0 0 0 201.91791,104.17917 96.175048,96.175048 0 0 0 106.06226,8.0201822 Z"
     style="opacity:1;fill:#ffd42a;fill-opacity:1;fill-rule:nonzero;stroke:none;stroke-width:5.2872057;stroke-linecap:round;stroke-linejoin:round;stroke-miterlimit:4;stroke-dasharray:none;stroke-dashoffset:0;stroke-opacity:1" />
  <path
     id="path4551"
     d="M 105.7429,8.0041625 A 96.175048,96.175048 0 0 0 9.5678912,104.17917 96.175048,96.175048 0 0 0 105.7429,200.35418 a 96.175048,96.175048 0 0 0 0.31936,-0.0114 V 8.0201822 a 96.175048,96.175048 0 0 0 -0.31936,-0.016021 z"
     style="opacity:1;fill:#ffcc00;fill-opacity:1;fill-rule:nonzero;stroke:none;stroke-width:5;stroke-linecap:round;stroke-linejoin:round;stroke-miterlimit:4;stroke-dasharray:none;stroke-dashoffset:0;stroke-opacity:1" />
  <path
     id="text4489"
     d="M 90.206379,47.776928 46.81988,160.58141 h 30.990357 l 7.768519,-19.66857 H 106.06226 V 118.59999 H 93.677485 l 12.313455,-35.948706 0.0713,0.210841 V 47.776928 Z"
     style="font-style:normal;font-variant:normal;font-weight:bold;font-stretch:normal;font-size:169.2484436px;line-height:105.78027344px;font-family:Aharoni;-inkscape-font-specification:'Aharoni, Bold';font-variant-ligatures:normal;font-variant-caps:normal;font-variant-numeric:normal;font-feature-settings:normal;text-align:start;letter-spacing:0px;word-spacing:0px;writing-mode:lr-tb;text-anchor:start;fill:#000000;fill-opacity:1;stroke:none;stroke-width:4.23121119px;stroke-linecap:butt;stroke-linejoin:miter;stroke-opacity:1" />
  <path
     id="rect4493"
     d="m 106.06226,47.776928 v 35.085197 l 12.07678,35.737865 h -12.07678 v 22.31285 h 20.01015 l 7.27242,19.66857 h 31.32109 L 122.18841,47.776928 Z"
     style="opacity:1;fill:#1a1a1a;fill-opacity:1;fill-rule:nonzero;stroke:none;stroke-width:5.2872057;stroke-linecap:round;stroke-linejoin:round;stroke-miterlimit:4;stroke-dasharray:none;stroke-dashoffset:0;stroke-opacity:1" />
</svg>
