<?xml version="1.0" encoding="UTF-8" standalone="no"?>
<svg
   xmlns:dc="http://purl.org/dc/elements/1.1/"
   xmlns:cc="http://creativecommons.org/ns#"
   xmlns:rdf="http://www.w3.org/1999/02/22-rdf-syntax-ns#"
   xmlns:svg="http://www.w3.org/2000/svg"
   xmlns="http://www.w3.org/2000/svg"
   id="svg8"
   version="1.1"
   viewBox="0 0 210 210"
   height="210mm"
   width="210mm">
  <defs
     id="defs2" />
  <metadata
     id="metadata5">
    <rdf:RDF>
      <cc:Work
         rdf:about="">
        <dc:format>image/svg+xml</dc:format>
        <dc:type
           rdf:resource="http://purl.org/dc/dcmitype/StillImage" />
        <dc:title></dc:title>
      </cc:Work>
    </rdf:RDF>
  </metadata>
  <g
     transform="translate(0,-87)"
     id="layer1">
    <path
       transform="matrix(0.26458333,0,0,0.26458333,0,87)"
       id="rect4495"
       d="M 400.86523 30.3125 L 400.86523 757.20117 A 363.49625 363.49625 0 0 0 763.1543 393.74805 A 363.49625 363.49625 0 0 0 400.86523 30.3125 z "
       style="opacity:1;fill:#ffd42a;fill-opacity:1;fill-rule:nonzero;stroke:none;stroke-width:19.98313904;stroke-linecap:round;stroke-linejoin:round;stroke-miterlimit:4;stroke-dasharray:none;stroke-dashoffset:0;stroke-opacity:1" />
    <path
       id="path5303"
       transform="matrix(0.26458333,0,0,0.26458333,0,87)"
       d="M 399.6582,30.251953 A 363.49625,363.49625 0 0 0 36.162109,393.74805 363.49625,363.49625 0 0 0 399.6582,757.24414 a 363.49625,363.49625 0 0 0 1.20703,-0.043 V 30.3125 a 363.49625,363.49625 0 0 0 -1.20703,-0.06055 z"
       style="opacity:1;fill:#ffcc00;fill-opacity:1;fill-rule:nonzero;stroke:none;stroke-width:18.89763832;stroke-linecap:round;stroke-linejoin:round;stroke-miterlimit:4;stroke-dasharray:none;stroke-dashoffset:0;stroke-opacity:1" />
    <path
       id="path5241"
       transform="matrix(0.26458333,0,0,0.26458333,0,87)"
       d="m 237.24023,180.57422 v 426.34766 h 163.625 v -85.71876 c -8.17477,0.92303 -17.52832,1.38672 -28.06835,1.38672 h -24.67579 v -89.95507 h 22.80079 c 12.20579,0 22.17704,0.23918 29.94335,0.71484 v -92.05078 c -8.12515,4.66124 -18.92992,7.0039 -32.4414,7.0039 h -20.30274 v -83.39648 h 20.30274 c 10.41144,0 18.74141,1.04076 24.98828,3.12305 2.69213,0.96147 5.17535,2.07932 7.45312,3.35156 v -90.80664 z"
       style="font-style:normal;font-variant:normal;font-weight:bold;font-stretch:normal;font-size:169.2484436px;line-height:105.78027344px;font-family:Aharoni;-inkscape-font-specification:'Aharoni, Bold';font-variant-ligatures:normal;font-variant-caps:normal;font-variant-numeric:normal;font-feature-settings:normal;text-align:start;letter-spacing:0px;word-spacing:0px;writing-mode:lr-tb;text-anchor:start;fill:#000000;fill-opacity:1;stroke:none;stroke-width:15.9919796px;stroke-linecap:butt;stroke-linejoin:miter;stroke-opacity:1" />
    <path
       id="path5114"
       transform="matrix(0.26458333,0,0,0.26458333,0,87)"
       d="M 400.86523 180.57422 L 400.86523 271.38086 C 413.38656 278.37458 419.64844 290.06255 419.64844 306.44727 C 419.64844 317.4834 416.31567 326.74985 409.65234 334.24609 C 407.19775 337.00752 404.26021 339.35119 400.86523 341.29883 L 400.86523 433.34961 C 405.68566 433.64484 409.66722 434.03128 412.77734 434.50977 C 438.3895 438.88257 451.19531 453.45709 451.19531 478.23633 C 451.19531 493.64527 444.84454 505.09751 432.14258 512.59375 C 425.08323 516.77707 414.65457 519.64615 400.86523 521.20312 L 400.86523 606.92188 L 414.96289 606.92188 C 468.68594 606.92188 508.6655 592.44968 534.90234 563.50586 C 553.01826 543.51589 562.07617 517.59144 562.07617 485.73242 C 562.07617 461.16141 556.4553 439.6105 545.21094 421.07812 C 532.7172 400.87992 509.39563 387.23994 475.24609 380.16016 C 490.4468 371.20631 501.6905 360.3797 508.97852 347.67773 C 517.72413 332.68525 522.09766 314.04807 522.09766 291.76758 C 522.09766 217.63809 482.11614 180.57422 402.15625 180.57422 L 400.86523 180.57422 z "
       style="opacity:1;fill:#1a1a1a;fill-opacity:1;fill-rule:nonzero;stroke:none;stroke-width:19.98313904;stroke-linecap:round;stroke-linejoin:round;stroke-miterlimit:4;stroke-dasharray:none;stroke-dashoffset:0;stroke-opacity:1" />
  </g>
</svg>
