<?xml version="1.0" encoding="UTF-8" standalone="no"?>
<svg
   xmlns:dc="http://purl.org/dc/elements/1.1/"
   xmlns:cc="http://creativecommons.org/ns#"
   xmlns:rdf="http://www.w3.org/1999/02/22-rdf-syntax-ns#"
   xmlns:svg="http://www.w3.org/2000/svg"
   xmlns="http://www.w3.org/2000/svg"
   id="svg8"
   version="1.1"
   viewBox="0 0 210 210"
   height="210mm"
   width="210mm">
  <defs
     id="defs2" />
  <metadata
     id="metadata5">
    <rdf:RDF>
      <cc:Work
         rdf:about="">
        <dc:format>image/svg+xml</dc:format>
        <dc:type
           rdf:resource="http://purl.org/dc/dcmitype/StillImage" />
        <dc:title></dc:title>
      </cc:Work>
    </rdf:RDF>
  </metadata>
  <g
     transform="translate(0,-87)"
     id="layer1">
    <path
       transform="matrix(0.26458333,0,0,0.26458333,0,87)"
       id="rect4495"
       d="M 400.86523 30.3125 L 400.86523 757.20117 A 363.49625 363.49625 0 0 0 763.1543 393.74805 A 363.49625 363.49625 0 0 0 400.86523 30.3125 z "
       style="opacity:1;fill:#ffd42a;fill-opacity:1;fill-rule:nonzero;stroke:none;stroke-width:19.98313904;stroke-linecap:round;stroke-linejoin:round;stroke-miterlimit:4;stroke-dasharray:none;stroke-dashoffset:0;stroke-opacity:1" />
    <path
       id="path5303"
       transform="matrix(0.26458333,0,0,0.26458333,0,87)"
       d="M 399.6582,30.251953 A 363.49625,363.49625 0 0 0 36.162109,393.74805 363.49625,363.49625 0 0 0 399.6582,757.24414 a 363.49625,363.49625 0 0 0 1.20703,-0.043 V 30.3125 a 363.49625,363.49625 0 0 0 -1.20703,-0.06055 z"
       style="opacity:1;fill:#ffcc00;fill-opacity:1;fill-rule:nonzero;stroke:none;stroke-width:18.89763832;stroke-linecap:round;stroke-linejoin:round;stroke-miterlimit:4;stroke-dasharray:none;stroke-dashoffset:0;stroke-opacity:1" />
    <path
       id="path5394"
       transform="matrix(0.26458333,0,0,0.26458333,0,87)"
       d="m 400.86523,178.47461 c -29.82383,8.2381 -57.50605,22.67485 -83.04101,43.32812 -54.13951,43.9363 -81.20899,101.30374 -81.20899,172.10157 0,70.58959 27.06948,127.85276 81.20899,171.78906 25.63206,20.73181 53.31484,35.19789 83.04101,43.41992 V 489.99805 c -2.96701,-1.99815 -5.86953,-4.14541 -8.70312,-6.45117 -26.86153,-21.86404 -40.29297,-51.74492 -40.29297,-89.64258 0,-38.10589 13.43144,-68.09105 40.29297,-89.95508 2.83359,-2.30577 5.73611,-4.45302 8.70312,-6.45117 z"
       style="font-style:normal;font-variant:normal;font-weight:bold;font-stretch:normal;font-size:169.2484436px;line-height:105.78027344px;font-family:Aharoni;-inkscape-font-specification:'Aharoni, Bold';font-variant-ligatures:normal;font-variant-caps:normal;font-variant-numeric:normal;font-feature-settings:normal;text-align:start;letter-spacing:0px;word-spacing:0px;writing-mode:lr-tb;text-anchor:start;fill:#000000;fill-opacity:1;stroke:none;stroke-width:15.9919796px;stroke-linecap:butt;stroke-linejoin:miter;stroke-opacity:1" />
    <path
       id="path5324"
       transform="matrix(0.26458333,0,0,0.26458333,0,87)"
       d="M 463.06445 170.26562 C 441.38644 170.26562 420.65486 173.00821 400.86523 178.47461 L 400.86523 297.49805 C 420.13766 284.51896 442.2231 278.02539 467.125 278.02539 C 489.82195 278.02539 511.06005 283.95908 530.8418 295.82812 C 541.6697 302.28322 552.28973 311.86249 562.70117 324.56445 L 562.70117 191.81836 C 525.84466 177.45057 492.63296 170.26562 463.06445 170.26562 z M 562.70117 462.93164 C 552.0815 475.84183 541.46147 485.4211 530.8418 491.66797 C 511.06005 503.53702 489.82195 509.4707 467.125 509.4707 C 442.2231 509.4707 420.13766 502.97713 400.86523 489.99805 L 400.86523 609.11328 C 420.40272 614.5172 440.82092 617.23047 462.12695 617.23047 C 492.94483 617.23047 526.46934 610.04553 562.70117 595.67773 L 562.70117 462.93164 z "
       style="opacity:1;fill:#1a1a1a;fill-opacity:1;fill-rule:nonzero;stroke:none;stroke-width:19.98313904;stroke-linecap:round;stroke-linejoin:round;stroke-miterlimit:4;stroke-dasharray:none;stroke-dashoffset:0;stroke-opacity:1" />
  </g>
</svg>
