<?xml version="1.0" encoding="UTF-8" standalone="no"?>
<svg
   xmlns:dc="http://purl.org/dc/elements/1.1/"
   xmlns:cc="http://creativecommons.org/ns#"
   xmlns:rdf="http://www.w3.org/1999/02/22-rdf-syntax-ns#"
   xmlns:svg="http://www.w3.org/2000/svg"
   xmlns="http://www.w3.org/2000/svg"
   id="svg8"
   version="1.1"
   viewBox="0 0 210 210"
   height="210mm"
   width="210mm">
  <defs
     id="defs2" />
  <metadata
     id="metadata5">
    <rdf:RDF>
      <cc:Work
         rdf:about="">
        <dc:format>image/svg+xml</dc:format>
        <dc:type
           rdf:resource="http://purl.org/dc/dcmitype/StillImage" />
        <dc:title></dc:title>
      </cc:Work>
    </rdf:RDF>
  </metadata>
  <g
     transform="translate(0,-87)"
     id="layer1">
    <path
       transform="matrix(0.26458333,0,0,0.26458333,0,87)"
       id="rect4495"
       d="M 400.86523 30.3125 L 400.86523 757.20117 A 363.49625 363.49625 0 0 0 763.1543 393.74805 A 363.49625 363.49625 0 0 0 400.86523 30.3125 z "
       style="opacity:1;fill:#ffd42a;fill-opacity:1;fill-rule:nonzero;stroke:none;stroke-width:19.98313904;stroke-linecap:round;stroke-linejoin:round;stroke-miterlimit:4;stroke-dasharray:none;stroke-dashoffset:0;stroke-opacity:1" />
    <path
       id="path5303"
       transform="matrix(0.26458333,0,0,0.26458333,0,87)"
       d="M 399.6582,30.251953 A 363.49625,363.49625 0 0 0 36.162109,393.74805 363.49625,363.49625 0 0 0 399.6582,757.24414 a 363.49625,363.49625 0 0 0 1.20703,-0.043 V 30.3125 a 363.49625,363.49625 0 0 0 -1.20703,-0.06055 z"
       style="opacity:1;fill:#ffcc00;fill-opacity:1;fill-rule:nonzero;stroke:none;stroke-width:18.89763832;stroke-linecap:round;stroke-linejoin:round;stroke-miterlimit:4;stroke-dasharray:none;stroke-dashoffset:0;stroke-opacity:1" />
    <path
       id="path5494"
       transform="matrix(0.26458333,0,0,0.26458333,0,87)"
       d="m 400.86523,182.01758 v 100.1289 c 18.50689,7.16399 33.77856,18.69424 45.80079,34.60938 16.45008,21.86403 24.67578,47.47566 24.67578,76.83594 0,29.36027 -8.2257,55.07617 -24.67578,77.14843 -11.94068,15.95917 -27.21291,27.50844 -45.80079,34.66797 v 100.01953 c 14.50071,-1.77199 28.83223,-5.12055 42.99024,-10.0625 41.64578,-14.57602 75.79397,-40.709 102.44726,-78.39843 26.86153,-37.89766 40.29297,-79.02225 40.29297,-123.375 0,-31.85902 -7.28726,-62.78067 -21.86328,-92.76563 -17.90768,-36.23183 -43.62554,-65.17622 -77.15039,-86.83203 -27.07304,-17.66351 -55.97935,-28.31631 -86.7168,-31.97656 z"
       style="font-style:normal;font-variant:normal;font-weight:bold;font-stretch:normal;font-size:169.2484436px;line-height:105.78027344px;font-family:Aharoni;-inkscape-font-specification:'Aharoni, Bold';font-variant-ligatures:normal;font-variant-caps:normal;font-variant-numeric:normal;font-feature-settings:normal;text-align:start;letter-spacing:0px;word-spacing:0px;writing-mode:lr-tb;text-anchor:start;fill:#1a1a1a;fill-opacity:1;stroke:none;stroke-width:15.9919796px;stroke-linecap:butt;stroke-linejoin:miter;stroke-opacity:1" />
    <path
       transform="matrix(0.26458333,0,0,0.26458333,0,87)"
       id="text5441"
       d="M 212.7207 180.57422 L 212.7207 606.92188 L 376.38867 606.92188 C 384.60158 606.92188 392.75941 606.41827 400.86523 605.42773 L 400.86523 505.4082 C 385.74182 511.23332 368.42603 514.15625 348.90234 514.15625 L 323.60352 514.15625 L 323.60352 273.33984 L 348.90234 273.33984 C 368.3985 273.33984 385.71486 276.2818 400.86523 282.14648 L 400.86523 182.01758 C 392.83091 181.06084 384.67335 180.57422 376.38867 180.57422 L 212.7207 180.57422 z "
       style="font-style:normal;font-variant:normal;font-weight:bold;font-stretch:normal;font-size:169.2484436px;line-height:105.78027344px;font-family:Aharoni;-inkscape-font-specification:'Aharoni, Bold';font-variant-ligatures:normal;font-variant-caps:normal;font-variant-numeric:normal;font-feature-settings:normal;text-align:start;letter-spacing:0px;word-spacing:0px;writing-mode:lr-tb;text-anchor:start;fill:#000000;fill-opacity:1;stroke:none;stroke-width:15.9919796px;stroke-linecap:butt;stroke-linejoin:miter;stroke-opacity:1" />
  </g>
</svg>
