<?xml version="1.0" encoding="UTF-8" standalone="no"?>
<svg
   xmlns:dc="http://purl.org/dc/elements/1.1/"
   xmlns:cc="http://creativecommons.org/ns#"
   xmlns:rdf="http://www.w3.org/1999/02/22-rdf-syntax-ns#"
   xmlns:svg="http://www.w3.org/2000/svg"
   xmlns="http://www.w3.org/2000/svg"
   id="svg8"
   version="1.1"
   viewBox="0 0 210 210"
   height="210mm"
   width="210mm">
  <defs
     id="defs2" />
  <metadata
     id="metadata5">
    <rdf:RDF>
      <cc:Work
         rdf:about="">
        <dc:format>image/svg+xml</dc:format>
        <dc:type
           rdf:resource="http://purl.org/dc/dcmitype/StillImage" />
        <dc:title></dc:title>
      </cc:Work>
    </rdf:RDF>
  </metadata>
  <g
     transform="translate(0,-87)"
     id="layer1">
    <path
       transform="matrix(0.26458333,0,0,0.26458333,0,87)"
       style="opacity:1;fill:#ffd42a;fill-opacity:1;fill-rule:nonzero;stroke:none;stroke-width:19.98313904;stroke-linecap:round;stroke-linejoin:round;stroke-miterlimit:4;stroke-dasharray:none;stroke-dashoffset:0;stroke-opacity:1"
       d="M 400.86523 30.3125 L 400.86523 757.20117 A 363.49625 363.49625 0 0 0 763.1543 393.74805 A 363.49625 363.49625 0 0 0 400.86523 30.3125 z "
       id="path5675" />
    <path
       transform="matrix(0.26458333,0,0,0.26458333,0,87)"
       id="rect4495"
       d="M 400.86523 180.57422 L 400.86523 273.33984 L 521.00391 273.33984 L 521.00391 180.57422 L 400.86523 180.57422 z M 400.86523 345.49023 L 400.86523 438.25781 L 513.82031 438.25781 L 513.82031 345.49023 L 400.86523 345.49023 z M 400.86523 514.15625 L 400.86523 606.92188 L 521.00391 606.92188 L 521.00391 514.15625 L 400.86523 514.15625 z "
       style="opacity:1;fill:#1a1a1a;fill-opacity:1;fill-rule:nonzero;stroke:none;stroke-width:19.98313904;stroke-linecap:round;stroke-linejoin:round;stroke-miterlimit:4;stroke-dasharray:none;stroke-dashoffset:0;stroke-opacity:1" />
    <path
       transform="matrix(0.26458333,0,0,0.26458333,0,87)"
       id="path5673"
       d="M 399.6582,30.251953 A 363.49625,363.49625 0 0 0 36.162109,393.74805 363.49625,363.49625 0 0 0 399.6582,757.24414 a 363.49625,363.49625 0 0 0 1.20703,-0.043 V 30.3125 a 363.49625,363.49625 0 0 0 -1.20703,-0.06055 z"
       style="opacity:1;fill:#ffcc00;fill-opacity:1;fill-rule:nonzero;stroke:none;stroke-width:18.89763832;stroke-linecap:round;stroke-linejoin:round;stroke-miterlimit:4;stroke-dasharray:none;stroke-dashoffset:0;stroke-opacity:1" />
    <path
       id="text5686"
       transform="matrix(0.26458333,0,0,0.26458333,0,87)"
       d="M 278.3125 180.57422 L 278.3125 606.92188 L 400.86523 606.92188 L 400.86523 514.15625 L 389.19531 514.15625 L 389.19531 438.25781 L 400.86523 438.25781 L 400.86523 345.49023 L 389.19531 345.49023 L 389.19531 273.33984 L 400.86523 273.33984 L 400.86523 180.57422 L 278.3125 180.57422 z "
       style="font-style:normal;font-variant:normal;font-weight:bold;font-stretch:normal;font-size:169.2484436px;line-height:105.78027344px;font-family:Aharoni;-inkscape-font-specification:'Aharoni, Bold';font-variant-ligatures:normal;font-variant-caps:normal;font-variant-numeric:normal;font-feature-settings:normal;text-align:start;letter-spacing:0px;word-spacing:0px;writing-mode:lr-tb;text-anchor:start;fill:#000000;fill-opacity:1;stroke:none;stroke-width:15.9919796px;stroke-linecap:butt;stroke-linejoin:miter;stroke-opacity:1" />
  </g>
</svg>
